<svg id="Layer_1" data-name="Layer 1" xmlns="http://www.w3.org/2000/svg" viewBox="0 0 180.62 60.87"><title>brian1</title><path d="M329.6,210h15.79a42,42,0,0,1,11.34,1.16A11.24,11.24,0,0,1,363,215.9q2.37,3.56,2.37,11.44,0,5.34-1.67,7.44t-6.6,3.23q5.49,1.25,7.44,4.12t2,8.82v5.64c0,4.12-.47,7.16-1.41,9.14a7.6,7.6,0,0,1-4.5,4.07q-3.07,1.09-12.63,1.09H329.6Zm15.83,10.41V234c.68,0,1.2,0,1.58,0,1.55,0,2.54-.38,3-1.15s.64-2.95.64-6.56a10.58,10.58,0,0,0-.53-4,2.49,2.49,0,0,0-1.37-1.45A12.39,12.39,0,0,0,345.43,220.43Zm0,23v17c2.23-.07,3.65-.42,4.27-1.05s.92-2.17.92-4.62v-5.68c0-2.61-.28-4.19-.83-4.74S347.79,243.52,345.43,243.44Z" transform="translate(-329.6 -210.02)"/><path d="M372.12,210h11.21q11.21,0,15.17.86A10.48,10.48,0,0,1,405,215.3q2.49,3.55,2.5,11.34c0,4.73-.59,7.92-1.77,9.55s-3.5,2.6-7,2.93c3.14.78,5.24,1.82,6.32,3.12a9.22,9.22,0,0,1,2,3.59,55.5,55.5,0,0,1,.4,9v16.06h-14.7V250.66q0-4.89-.77-6T388,243.44v27.45H372.12ZM388,220.43V234a7,7,0,0,0,3.75-.74c.71-.48,1.07-2.07,1.07-4.75v-3.35c0-1.93-.35-3.19-1-3.8S389.78,220.43,388,220.43Z" transform="translate(-329.6 -210.02)"/><path d="M429.42,210v60.87H413.6V210Z" transform="translate(-329.6 -210.02)"/><path d="M463.14,210l9.05,60.87H456L455.17,260H449.5l-.95,10.94H432.19L440.26,210Zm-8.39,39.14q-1.2-10.35-2.41-25.57-2.41,17.49-3,25.57Z" transform="translate(-329.6 -210.02)"/><path d="M510.22,210v60.87H496.35l-8.24-27.67v27.67H474.88V210h13.23L497,237.43V210Z" transform="translate(-329.6 -210.02)"/></svg>