<svg id="Layer_4" data-name="Layer 4" xmlns="http://www.w3.org/2000/svg" viewBox="0 0 363.48 85.9"><title>ethan1</title><path d="M96.87,395.29H32.82v-85.9H94.87v10.19H44.19v26.25h47.4V356H44.19v29.06H96.87Z" transform="translate(-32.82 -309.39)"/><path d="M167.92,319.58H139.5v75.71H128.07V319.58H99.89V309.39h68Z" transform="translate(-32.82 -309.39)"/><path d="M241.61,395.29H230.18V354.86H185.53v40.43H174.16v-85.9h11.37v35.27h44.65V309.39h11.43Z" transform="translate(-32.82 -309.39)"/><path d="M325.37,395.29H312.54l-10-26.14h-36l-9.49,26.14h-12l33-85.9h12.24Zm-26.13-35.16-15.12-39.84-14.41,39.84Z" transform="translate(-32.82 -309.39)"/><path d="M396.3,395.29H384.64l-45-67.8v67.8H328.86v-85.9h11.6l45,67.79V309.39H396.3Z" transform="translate(-32.82 -309.39)"/></svg>