<svg id="Layer_3" data-name="Layer 3" xmlns="http://www.w3.org/2000/svg" viewBox="0 0 384.3 112.01"><title>taylor1</title><path d="M45,132.67v82.74H25.44V132.67H9.34V109.31h51.8v23.36Z" transform="translate(-9.34 -106.35)"/><path d="M107.54,197h-28L75,215.41H54.14l28.7-106.1h21.4l28.7,106.1H112Zm-5.2-21-8.8-35.32L84.74,176Z" transform="translate(-9.34 -106.35)"/><path d="M147.64,164.47l-27.5-55.16h23.4l14,29,13.9-29h23.39l-27.59,55.16v50.94h-19.6Z" transform="translate(-9.34 -106.35)"/><path d="M216.33,109.31v82.74h23.5v23.36h-43.1V109.31Z" transform="translate(-9.34 -106.35)"/><path d="M240,162.36a75.61,75.61,0,0,1,3.1-22,59.75,59.75,0,0,1,8.6-17.8,40.94,40.94,0,0,1,13.15-11.9,35.14,35.14,0,0,1,33.65,0,41.16,41.16,0,0,1,13.25,11.9,58.64,58.64,0,0,1,8.65,17.8,79.76,79.76,0,0,1,0,44,58.87,58.87,0,0,1-8.65,17.8,41,41,0,0,1-13.25,11.89,35.14,35.14,0,0,1-33.65,0,40.79,40.79,0,0,1-13.15-11.89,60,60,0,0,1-8.6-17.8A75.61,75.61,0,0,1,240,162.36Zm20.5,0a38.51,38.51,0,0,0,1.7,11.68,32,32,0,0,0,4.6,9.28,21.67,21.67,0,0,0,6.75,6.12,16.26,16.26,0,0,0,16.3,0,21.93,21.93,0,0,0,6.8-6.12,30.83,30.83,0,0,0,4.65-9.28,41,41,0,0,0,0-23.36,30.88,30.88,0,0,0-4.65-9.29,22.19,22.19,0,0,0-6.8-6.12,16.32,16.32,0,0,0-16.3,0,21.91,21.91,0,0,0-6.75,6.12,32,32,0,0,0-4.6,9.29A38.47,38.47,0,0,0,260.53,162.36Z" transform="translate(-9.34 -106.35)"/><path d="M393.63,215.41h-24.4l-18.7-40.81v40.81h-19.6V109.31h30.5A21.62,21.62,0,0,1,380.18,119a33.33,33.33,0,0,1,4.6,10.41,49.46,49.46,0,0,1,1.55,12.66q0,12.1-4.15,19.63a21.1,21.1,0,0,1-12.25,10.21Zm-43.1-58.68h3.7q5.81,0,8.9-3.38t3.1-9.71q0-6.33-3.1-9.71t-8.9-3.37h-3.7Z" transform="translate(-9.34 -106.35)"/></svg>