<svg id="Layer_2" data-name="Layer 2" xmlns="http://www.w3.org/2000/svg" viewBox="0 0 378.24 84.96"><title>tyler1</title><path d="M56.69,246.66H28.13V185.82H7.25V161.7H77.57v24.12H56.69Z" transform="translate(-7.25 -161.7)"/><path d="M140.81,246.66H112.25v-34.8l-32-50.16h34.44l13.44,25,12.84-25h33.6l-33.72,50.16Z" transform="translate(-7.25 -161.7)"/><path d="M181.61,161.7h28.8v60.36h28.2v24.6h-57Z" transform="translate(-7.25 -161.7)"/><path d="M241.49,161.7h58.44v23.76H268.37v7.32H298V215H268.37v7.92H302v23.76H241.49Z" transform="translate(-7.25 -161.7)"/><path d="M307.85,161.7h36.6A62,62,0,0,1,356.87,163a31.41,31.41,0,0,1,11,4.44,24.08,24.08,0,0,1,7.86,8.52q3,5.34,3,13.38a24,24,0,0,1-14.84,22.92l21.56,34.44H352.68L336.41,216.3h-.84v30.36H307.85Zm27.48,35.88h5.6a23,23,0,0,0,3.15-.24,9.73,9.73,0,0,0,3.21-1,7.24,7.24,0,0,0,2.51-2.16,6.08,6.08,0,0,0,1-3.66,6.66,6.66,0,0,0-.84-3.6,5.28,5.28,0,0,0-2.14-2,8.48,8.48,0,0,0-2.86-.84,24.76,24.76,0,0,0-2.85-.18h-6.79Z" transform="translate(-7.25 -161.7)"/></svg>